<svg width="72" height="44" viewBox="0 0 72 44" fill="none" xmlns="http://www.w3.org/2000/svg">
<rect y="0.000488281" width="72" height="44" rx="5" fill="white"/>
<path d="M27.4887 11.1905V19.0005H25.9817V15.6675H22.4397V19.0005H20.9217V11.1905H22.4397V14.3475H25.9817V11.1905H27.4887ZM34.6054 17.6695V19.0005H29.1824V11.1905H34.5064V12.5215H30.7004V14.4025H33.9894V15.6345H30.7004V17.6695H34.6054ZM41.6291 12.5215H39.1321V19.0005H37.6251V12.5215H35.1281V11.1905H41.6291V12.5215ZM51.4452 16.9875C51.4452 17.3175 51.3792 17.6072 51.2472 17.8565C51.1152 18.1058 50.9319 18.3148 50.6972 18.4835C50.4699 18.6522 50.2022 18.7805 49.8942 18.8685C49.5936 18.9565 49.2709 19.0005 48.9262 19.0005H45.1532V11.1905H49.3332C49.6046 11.1905 49.8502 11.2492 50.0702 11.3665C50.2902 11.4838 50.4772 11.6378 50.6312 11.8285C50.7852 12.0118 50.9026 12.2245 50.9832 12.4665C51.0712 12.7012 51.1152 12.9395 51.1152 13.1815C51.1152 13.5628 51.0199 13.9222 50.8292 14.2595C50.6386 14.5895 50.3599 14.8352 49.9932 14.9965C50.4406 15.1285 50.7926 15.3668 51.0492 15.7115C51.3132 16.0488 51.4452 16.4742 51.4452 16.9875ZM49.9162 16.7015C49.9162 16.5622 49.8906 16.4302 49.8392 16.3055C49.7952 16.1735 49.7329 16.0598 49.6522 15.9645C49.5716 15.8692 49.4762 15.7958 49.3662 15.7445C49.2562 15.6858 49.1352 15.6565 49.0032 15.6565H46.6712V17.7135H48.9262C49.0656 17.7135 49.1939 17.6878 49.3112 17.6365C49.4359 17.5852 49.5422 17.5155 49.6302 17.4275C49.7182 17.3322 49.7879 17.2222 49.8392 17.0975C49.8906 16.9728 49.9162 16.8408 49.9162 16.7015ZM46.6712 12.4885V14.4575H48.6952C48.9519 14.4575 49.1682 14.3695 49.3442 14.1935C49.5276 14.0175 49.6192 13.7755 49.6192 13.4675C49.6192 13.1668 49.5349 12.9285 49.3662 12.7525C49.2049 12.5765 49.0032 12.4885 48.7612 12.4885H46.6712ZM15.7744 25.1905V33.0005H14.2674V29.6675H10.7254V33.0005H9.20735V25.1905H10.7254V28.3475H14.2674V25.1905H15.7744ZM19.6571 25.1905H20.9991L23.9691 33.0005H22.4071L21.6811 31.0535H18.9531L18.2381 33.0005H16.6761L19.6571 25.1905ZM21.4061 29.9865L20.3281 26.9175L19.2061 29.9865H21.4061ZM27.3337 27.7095C27.2531 28.7142 27.1431 29.5575 27.0037 30.2395C26.8644 30.9215 26.6737 31.4752 26.4317 31.9005C26.1897 32.3185 25.8891 32.6192 25.5297 32.8025C25.1704 32.9858 24.7304 33.0775 24.2097 33.0775L24.1217 31.7135C24.3711 31.6915 24.5874 31.6292 24.7707 31.5265C24.9614 31.4238 25.1227 31.2222 25.2547 30.9215C25.3941 30.6208 25.5114 30.1918 25.6067 29.6345C25.7021 29.0698 25.7901 28.3218 25.8707 27.3905L26.0577 25.1905H30.7877V33.0005H29.2807V26.5215H27.4327L27.3337 27.7095ZM34.0034 30.6685L37.9854 25.1905H39.1404V33.0005H37.6334V27.6435L33.7064 33.0005H32.4964V25.1905H34.0034V30.6685ZM44.6274 25.1905H46.1234V33.0005H44.6274V29.9535C44.5174 29.9975 44.4037 30.0378 44.2864 30.0745C44.169 30.1112 44.0407 30.1442 43.9014 30.1735C43.762 30.1955 43.608 30.2138 43.4394 30.2285C43.2707 30.2358 43.08 30.2395 42.8674 30.2395C42.4054 30.2395 42.0167 30.1735 41.7014 30.0415C41.386 29.9022 41.1294 29.7115 40.9314 29.4695C40.7407 29.2275 40.6014 28.9452 40.5134 28.6225C40.4327 28.2925 40.3924 27.9368 40.3924 27.5555V25.1905H41.8884V27.1265C41.8884 27.4272 41.9104 27.6875 41.9544 27.9075C42.0057 28.1275 42.0864 28.3072 42.1964 28.4465C42.3137 28.5858 42.464 28.6885 42.6474 28.7545C42.8307 28.8205 43.058 28.8535 43.3294 28.8535C43.63 28.8535 43.8904 28.8278 44.1104 28.7765C44.3304 28.7178 44.5027 28.6482 44.6274 28.5675V25.1905ZM49.3218 30.6685L53.3038 25.1905H54.4588V33.0005H52.9518V27.6435L49.0248 33.0005H47.8148V25.1905H49.3218V30.6685ZM57.6577 30.6685L61.6397 25.1905H62.7947V33.0005H61.2877V27.6435L57.3607 33.0005H56.1507V25.1905H57.6577V30.6685Z" fill="#FF4040"/>
</svg>
